<svg xmlns="http://www.w3.org/2000/svg" viewBox="0 0 800 90" width="100%">
      <defs>
        <filter id="neon-glow" x="-20%" y="-20%" width="140%" height="140%">
            <feGaussianBlur stdDeviation="2" result="blur" />
            <feComposite in="SourceGraphic" in2="blur" operator="over" />
        </filter>
        <linearGradient id="main-grad" x1="0%" y1="0%" x2="100%" y2="0%">
            <stop offset="0%" style="stop-color:#FF0033" />
            <stop offset="50%" style="stop-color:#800000" /> <!-- Dark center -->
            <stop offset="100%" style="stop-color:#FF0033" />
        </linearGradient>
      </defs>
      
      <!-- Background detail line -->
      <path d="M 0,80 L 800,80" stroke="#330000" stroke-width="1" />

      <!-- Main Design -->
      <g fill="none" stroke="url(#main-grad)" stroke-width="1.5" stroke-linecap="round" filter="url(#neon-glow)">
        <g transform="scale(1, -1) translate(0, -90)">
        <g transform="translate(0,0)">
        <path d="
        M 0,10 
        C 50,10 80,40 120,35
        C 160,30 150,70 200,60
        S 250,20 300,30
        S 380,80 400,85
     
        M 120,35 Q 110,60 130,55 T 140,45
        M 200,60 Q 190,85 220,80 T 230,70
        M 300,30 Q 320,10 340,15 T 350,25
     
        M 50,15 L 60,25 L 50,35
        M 250,25 L 260,15 L 280,15
        M 380,80 L 390,70 L 400,70
     
        M 800.0,10 
        C 750.0,10 80,40 120,35
        C 640.0,30 150,70 200,60
        S 550.0,20 300,30
        S 420.0,80 400,85
     
        M 680.0,35 Q 690.0,60 130,55 T 660.0,45
        M 600.0,60 Q 610.0,85 220,80 T 570.0,70
        M 500.0,30 Q 480.0,10 340,15 T 450.0,25
     
        M 750.0,15 L 740.0,25 L 750.0,35
        M 550.0,25 L 540.0,15 L 520.0,15
        M 420.0,80 L 410.0,70 L 400.0,70
     
        M 380,10 
        L 400,30 L 420,10 
        M 400,30 L 400,85
        M 350,5 L 360,15 L 440,15 L 450,5
    " />
    </g>
    </g>
      </g>
      
      <!-- High-light (Glitch overlay) -->
      <g fill="none" stroke="#FF8080" stroke-width="0.5" opacity="0.7">
        <g transform="scale(1, -1) translate(0, -90)">
        <g transform="translate(0,0)">
        <path d="
        M 0,10 
        C 50,10 80,40 120,35
        C 160,30 150,70 200,60
        S 250,20 300,30
        S 380,80 400,85
     
        M 120,35 Q 110,60 130,55 T 140,45
        M 200,60 Q 190,85 220,80 T 230,70
        M 300,30 Q 320,10 340,15 T 350,25
     
        M 50,15 L 60,25 L 50,35
        M 250,25 L 260,15 L 280,15
        M 380,80 L 390,70 L 400,70
     
        M 800.0,10 
        C 750.0,10 80,40 120,35
        C 640.0,30 150,70 200,60
        S 550.0,20 300,30
        S 420.0,80 400,85
     
        M 680.0,35 Q 690.0,60 130,55 T 660.0,45
        M 600.0,60 Q 610.0,85 220,80 T 570.0,70
        M 500.0,30 Q 480.0,10 340,15 T 450.0,25
     
        M 750.0,15 L 740.0,25 L 750.0,35
        M 550.0,25 L 540.0,15 L 520.0,15
        M 420.0,80 L 410.0,70 L 400.0,70
     
        M 380,10 
        L 400,30 L 420,10 
        M 400,30 L 400,85
        M 350,5 L 360,15 L 440,15 L 450,5
    " />
    </g>
    </g>
      </g>

    </svg>